/* XPM */
static char *collectable1706178114[] = {
/* columns rows colors chars-per-pixel */
"32 32 149 2 ",
"   c #B42E1B",
".  c #B52F1D",
"X  c #A6301B",
"o  c #AE3F2E",
"O  c #BC3726",
"+  c #B63A26",
"@  c #B83A22",
"#  c #BA3C23",
"$  c #BB3C24",
"%  c #BC3E2B",
"&  c #B1491C",
"*  c #BC5029",
"=  c #BE582D",
"-  c #BD5F2D",
";  c #AF4137",
":  c #B84533",
">  c #BB4337",
",  c #B94535",
"<  c #B94933",
"1  c #BA443E",
"2  c #B84C3A",
"3  c #C54C1E",
"4  c #C5581F",
"5  c #C34624",
"6  c #CA542B",
"7  c #C65E28",
"8  c #D35627",
"9  c #D45A24",
"0  c #DA5D22",
"q  c #DC5C22",
"w  c #DB5E24",
"e  c #C3573E",
"r  c #CA6525",
"t  c #CC6526",
"y  c #CB6A2A",
"u  c #D4612B",
"i  c #DB602B",
"p  c #CD7A2E",
"a  c #CE7338",
"s  c #DD7E30",
"d  c #E16723",
"f  c #E26728",
"g  c #E77123",
"h  c #E67621",
"j  c #E87322",
"k  c #EA7521",
"l  c #E97621",
"z  c #EB7422",
"x  c #ED7520",
"c  c #EC7523",
"v  c #E97125",
"b  c #EB7225",
"n  c #EA7A23",
"m  c #EA7F25",
"M  c #BD5648",
"N  c #BD624E",
"B  c #B57F58",
"V  c #C16448",
"C  c #CF6449",
"Z  c #C6704D",
"A  c #CA6952",
"S  c #C5716C",
"D  c #D57167",
"F  c #D07961",
"G  c #D87F6D",
"H  c #C07F77",
"J  c #CA7C76",
"K  c #D67C76",
"L  c #049470",
"P  c #65C45B",
"I  c #D78132",
"U  c #D78731",
"Y  c #D98D35",
"T  c #DC9937",
"R  c #D69239",
"E  c #E88725",
"W  c #EE8028",
"Q  c #E68F2A",
"!  c #F1922F",
"~  c #F19731",
"^  c #F29F34",
"/  c #EDA732",
"(  c #EEA734",
")  c #EEA635",
"_  c #E8A937",
"`  c #EEA835",
"'  c #EEAC3E",
"]  c #F0B53F",
"[  c #F6BB3E",
"{  c #D4874B",
"}  c #DB9453",
"|  c #EEA443",
" . c #EFB541",
".. c #F2BB41",
"X. c #F7BB40",
"o. c #F5BD41",
"O. c #FABF45",
"+. c #F1B54C",
"@. c #EAB552",
"#. c #D5966F",
"$. c #D58073",
"%. c #E09C6C",
"&. c #ADE34F",
"*. c #F6C142",
"=. c #F7C343",
"-. c #F7C442",
";. c #F7C443",
":. c #F8C141",
">. c #F8C343",
",. c #F8C144",
"<. c #F9C344",
"1. c #F7C348",
"2. c #F8C44C",
"3. c #F8C54D",
"4. c #ECC153",
"5. c #EEC153",
"6. c #F0C151",
"7. c #F6C651",
"8. c #F7C755",
"9. c #F6CA61",
"0. c #F6C966",
"q. c #F6CB6C",
"w. c #F5CF76",
"e. c #F3D07B",
"r. c #D7AF96",
"t. c #E9C384",
"y. c #F4D58A",
"u. c #DBC8BF",
"i. c #F1DBAD",
"p. c #F1DDAD",
"a. c #EFE1BA",
"s. c #EFE1C0",
"d. c #EFE4C6",
"f. c #E9E3CD",
"g. c #EFE7CC",
"h. c #EEE5CE",
"j. c #EEE7D2",
"k. c #EDE7D4",
"l. c #E5E0D9",
"z. c #E9EBDC",
"x. c #E9EADD",
"c. c #ECE9DD",
"v. c #ECEAE2",
"b. c #EAEBE5",
"n. c #EBEDE7",
"m. c #EDECE4",
"M. c #EDECE7",
"N. c #EBEDE8",
"B. c #EDEEE9",
/* pixels */
"&.&.&.P &.&.&.&.&.&.&.&.&.&.&.&.&.&.&.P &.&.&.&.&.&.&.&.&.&.&.&.",
"&.&.&.&.&.&.&.&.&.&.&.&.&.&.&.&.&.&.&.&.&.&.&.&.&.&.&.&.&.&.&.&.",
"&.&.&.&.&.&.&.&.&.&.&.&.&.&.&.&.&.&.&.&.&.&.&.&.&.&.&.&.%.%.&.&.",
"&.&.&.&.&.&.&.&.&.&.&.&.P P P L &.&.&.&.&.&.&.&.&.&.&.&.%.%.&.&.",
"&.&.&.&.&.&.&.&.&.&.&.&.&.P P P &.&.&.&.&.&.&.&.&.&.&.&.P %.&.&.",
"&.&.&.&.&.&.&.&.&.&.&.&.&.&.&.&.&.P &.P &.&.&.&.&.&.&.&.&.&.&.&.",
"&.&.&.P B %.%.&.&.&.&.&.&.&.&.&.P P P P &.&.&.&.&.&.&.&.&.&.&.&.",
"&.&.&.&.B %.%.&.P &.&.&.&.&.&.* F &.P &.&.&.&.&.&.&.&.&.&.&.&.&.",
"&.&.&.&.&.&.&.&.&.&.&.&.&.&.X +.Y 2 &.&.&.&.&.&.&.&.&.&.&.&.&.&.",
"&.&.&.&.&.&.&.&.&.&.&.&.&.{ T ,. .R Z &.&.&.&.&.&.&.&.&.&.&.&.&.",
"&.&.&.&.&.&.&.&.&.&.&.&.1 p X.>.,._ & K &.&.&.&.&.&.&.&.&.&.&.&.",
"&.&.&.&.&.&.&.&.&.&.&.&.e U o.>.3.@.- G &.&.&.&.&.&.&.&.&.&.&.&.",
"&.&.&.&.&.&.&.&.&.&.&.= | O.1.9.y.d.t.} o &.&.P &.&.&.&.&.&.&.&.",
"&.&.&.&.&.&.&.&.&.&.&.7 ' >.6.s.j.m.f.r.; &.&.&.&.&.&.&.&.&.&.&.",
"&.&.&.&.&.&.&.&.&.&.&.I ] ;.4.c.m.B.b.u.H &.&.&.&.&.&.P &.&.&.&.",
"&.&.&.&.&.&.&.&.&.&.a ..*.*.4.x.m.N.n.b.l.J &.&.&.&.&.P &.&.&.&.",
"&.P P &.&.&.&.&.&.&.y >.;.*.4.x.N.B.N.N.M.S &.&.&.&.&.&.&.&.&.&.",
"&.P L P P &.&.&.&.C s >.,.-.6.k.B.N.m.N.v.#.F &.&.&.&.&.&.&.&.&.",
"&.&.&.&.&.&.&.&.% w ~ >.;.;.6.i.a.B.N.k.i.0.y 1 &.&.&.&.&.&.&.&.",
"&.&.&.&.&.&.&.&.O w ! [ >.,.;.7.e.h.h.p.0.O.t , &.&.&.&.&.&.&.&.",
"&.&.&.&.&.&.&.&.$ q W ^ X.-.-.;.8.w.e.q.3.,.t , &.&.&.&.&.&.&.&.",
"&.&.&.&.&.&.&.&.$ q k W Q ( *.;.>.-.,.,.,.( 4 : &.&.&.&.&.&.&.&.",
"&.&.&.&.&.&.&.&.@ w k h h Q ) ) ( ( ( ( ` E 3 : &.&.&.&.&.&.&.&.",
"&.&.&.&.&.&.&.&.< 9 h k x n m m m m m m W h 6 M &.&.&.&.&.&.&.&.",
"&.&.&.&.&.&.&.P &.A 9 c x l c z c j v l h 8 K &.&.P &.&.&.&.&.&.",
"&.&.&.&.&.&.&.&.P &.V f j z c b c l l v i N &.&.P P &.&.&.&.&.&.",
"&.&.&.&.&.&.&.&.&.&.&.5 d j b j b b h w + &.&.&.P P &.&.&.&.&.P ",
"&.&.&.&.&.&.&.&.&.&.&.&.> .     . . O D &.&.&.&.&.&.&.&.&.&.&.&.",
"&.&.&.&.&.&.&.&.&.&.&.&.&.&.&.&.&.&.&.&.&.&.&.&.&.&.&.&.&.&.&.&.",
"&.&.&.&.&.&.&.&.&.&.&.&.&.&.&.&.&.&.&.&.&.&.&.&.&.&.&.&.&.&.&.&.",
"&.&.&.&.&.&.&.&.&.&.&.&.&.&.&.&.&.&.&.&.&.&.&.&.&.&.&.&.&.&.&.&.",
"&.&.&.&.&.&.&.&.&.&.&.&.&.&.&.&.&.&.&.&.&.&.&.&.&.&.&.P &.&.&.&."
};
