/* XPM */
static char *Bee_Idle_b1706178115[] = {
/* columns rows colors chars-per-pixel */
"32 32 11 1 ",
"  c black",
". c #303D72",
"X c #C76A03",
"o c #37946E",
"O c #75C44B",
"+ c #E89A0E",
"@ c #FFD000",
"# c #B08253",
"$ c #D9A066",
"% c #ADE34F",
"& c #567492",
/* pixels */
"%%%O%%%%%%%%%%%%%%%O%%%%%%%%%%%%",
"%%%%%%%%%%%%%%%%%%%%%%%%%%%%%%%%",
"%%%%%%%%%%%%%%%%%%%%%%%%%%%%$$%%",
"%%%%%%%%%%%%OOOo%%%%%%%%%%%%$$%%",
"%%%%%%%%%%%%%OOO%%%%%%%%%%%%O$%%",
"%%%%%%%%%%%%%%%%%O%O%%%%%%%%%%%%",
"%%%O#$$%%%%%%%%%OOOO%%%%%%%%%%%%",
"%%%%#$$%O%%%%&&%%&&%%%%%%%%%%%%%",
"%%%%%%%%%%%%%&....&%%%%%%%%%%%%%",
"%%%%%%%%%%%%%%    %%%%%%%%%%%%%%",
"%%%%%%%%%%%%% X++@ %%%%%%%%%%%%%",
"%%%%%%%%%%%%%XX  +@%%%%%%%%%%%%%",
"%%%%%%%%%%%%%X    +%%%%O%%%%%%%%",
"%%%%%%%%%%%%%X    X%%%%%%%%%%%%%",
"%%%%%%%%%%%%%%X  XO%%%%%%%%O%%%%",
"%%%%%%%%%%%%%%%  %%%%%%%%%%O%%%%",
"%OO%%%%%%%%%%%%%%%%%%%%%%%%%%%%%",
"%OoOO%%%%%%%%%%%%%%%%%%%%%%%%%%%",
"%%%%%%%%%%%%%%%%%%%%%%%%%%%%%%%%",
"%%%%%%%%%%%%%%%%%%%%%%%%%%%%%%%%",
"%%%%%%%%%%%%%%%%%%%%%%%%%%%%%%%%",
"%%%%%%%%%%%%%%%%%%%%%%%%%%%%%%%%",
"%%%%%%%%%%%%%%%%%%O%O%%%%%%%%%%%",
"%%%%%%%%%%%%%%%%O%%%%%%%%%%%%%%%",
"%%%%%%%O%%%%%%%%%%%%%%%%%O%%%%%%",
"%%%%%%%%O%%%%%%%%%%%%%%%OO%%%%%%",
"%%%%%%%%%%%%O$$O%O%%%%%%OO%%%%%O",
"%%%%%%%%%%%%%$%O%%%%%%%%%%%%%%%%",
"%%%%%%%%%%%%%%%%%%%%%%%%%%%%%%%%",
"%%%%%%%%%%%%%%%%%%%%%%%%%%%%%%%%",
"%%%%%%%%%%%%%%%%%%%%%%%%%%%%%%%%",
"%%%%%%%%%%%%%%%%%%%%%%%%%%%O%%%%"
};
