/* XPM */
static char *Bee_Idle_r1706178116[] = {
/* columns rows colors chars-per-pixel */
"32 32 15 1 ",
"  c black",
". c #252526",
"X c #303D72",
"o c #C76A03",
"O c #37946E",
"+ c #75C44B",
"@ c #E89A0E",
"# c #FFD000",
"$ c #B08253",
"% c #D9A066",
"& c #ADE34F",
"* c #FAFA7B",
"= c #567492",
"- c #71A4BF",
"; c #ABDCE1",
/* pixels */
"&&&+&&&&&&&&&&&&&&&+&&&&&&&&&&&&",
"&&&&&&&&&&&&&&&&&&&&&&&&&&&&&&&&",
"&&&&&&&&&&&&&&&&&&&&&&&&&&&&%%&&",
"&&&&&&&&&&&&+++O&&&&&&&&&&&&%%&&",
"&&&&&&&&&&&&&+++&&&&&&&&&&&&+%&&",
"&&&&&&&&&&&&&&&&&+&+&&&&&&&&&&&&",
"&&&+$%%&&&&&&&&&++++&&&&&&&&&&&&",
"&&&&$%%&+&&&&&&--&+XX&&&&&&&&&&&",
"&&&&&&&&&&&&&&=-;-XXXX&&&&&&&&&&",
"&&&&&&&&&&&&&&X===XXXX&&&.&&&&&&",
"&&&&&&&&&&&&&&. @o  &&...&&&&&&&",
"&&&&&&&&&&&&&@. @o *###&&&&&&&&&",
"&&&&&&&&&&&& #. @o ####+&&&&&&&&",
"&&&&&&&&&&&  #  oo #  #&&&&&&&&&",
"&&&&&&&&&&&  @o  o #  @&&&&+&&&&",
"&&&&&&&&&&    @  o  @@&&&&&+&&&&",
"&++&&&&&&&&&  oo&&&&&&&&&&&&&&&&",
"&+O++&&&&&&&&&&&&&&&&&&&&&&&&&&&",
"&&&&&&&&&&&&&&&&&&&&&&&&&&&&&&&&",
"&&&&&&&&&&&&&&&&&&&&&&&&&&&&&&&&",
"&&&&&&&&&&&&&&&&&&&&&&&&&&&&&&&&",
"&&&&&&&&&&&&&&&&&&&&&&&&&&&&&&&&",
"&&&&&&&&&&&&&&&&&&+&+&&&&&&&&&&&",
"&&&&&&&&&&&&&&&&+&&&&&&&&&&&&&&&",
"&&&&&&&+&&&&&&&&&&&&&&&&&+&&&&&&",
"&&&&&&&&+&&&&&&&&&&&&&&&++&&&&&&",
"&&&&&&&&&&&&+%%+&+&&&&&&++&&&&&+",
"&&&&&&&&&&&&&%&+&&&&&&&&&&&&&&&&",
"&&&&&&&&&&&&&&&&&&&&&&&&&&&&&&&&",
"&&&&&&&&&&&&&&&&&&&&&&&&&&&&&&&&",
"&&&&&&&&&&&&&&&&&&&&&&&&&&&&&&&&",
"&&&&&&&&&&&&&&&&&&&&&&&&&&&+&&&&"
};
