/* XPM */
static char *pixil_frame_01706178113[] = {
/* columns rows colors chars-per-pixel */
"32 32 40 1 ",
"  c black",
". c #090606",
"X c #0A0F06",
"o c #1C1314",
"O c #302121",
"+ c #4F2628",
"@ c #432E2F",
"# c #563B3C",
"$ c #56422C",
"% c gray29",
"& c #69484A",
"* c #6C4A4C",
"= c #7D5657",
"- c #71717F",
"; c #8F4448",
": c #AF5358",
"> c #B57F58",
", c #906365",
"< c #9A6A6C",
"1 c #9F6A6D",
"2 c #AC6D6F",
"3 c #B96F72",
"4 c #CF7277",
"5 c #049470",
"6 c #719C45",
"7 c #65C45B",
"8 c #AB8A44",
"9 c #E09C6C",
"0 c #9DDA60",
"q c #ADE34F",
"w c #1D7090",
"e c #B77C8D",
"r c #FF7A81",
"t c #1983AA",
"y c #1F94BF",
"u c #2AAFE1",
"i c #2FBAEE",
"p c gray56",
"a c #A4A4A4",
"s c #A4E0F7",
/* pixels */
"qqq7qqqqqqqqqqqqqqq7qqqqqqqqqqqq",
"qqqqqqqq   qqqqqqqqqqq   qqqqqqq",
"qqqqqqq OOO qqqqqqqqq OOO qq99qq",
"qqqqqq <  O<         <  <  q99qq",
"qqqqqq @rr:<#<<<<<<<<Orr;< q79qq",
"qqqqqq  rr:<<<<<<<<<<Orrr< qqqqq",
"qqq7>9  r <<<<<<<<<<<<<rr< qqqqq",
"qqqq>9 <,<<<..<<<<*.<<<,, 0qqqqq",
"qqqqqqqX,<<< a <<<% .<<< qqqqqqq",
"qqqqqqqq <<<   <<<  <<<< qqqqqqq",
"qqqqqqq <<4r+8O&&<$8rr3< qqqqqqq",
"qqqqqqq <rrrr3<  <<rrrr< qqqqqqq",
"qqqqqqq <rrrr3<  <<rrrr< qqqqqqq",
"qqqqqqq <rrrr3<<<<<rrrr< qqqqqqq",
"qqqqqqqq 2rrr1<oo<<2rrr qqq7qqqq",
"qqqqqqqq <3r<<<<<<<<rr< qqq7qqqq",
"q77qqqqqq ,<<<<<<<<<<, qqqqqqqqq",
"q7577qqqq <          < qqqqqqqqq",
"qqqqqqqq <<tiyeeeeyit<< qqqqqqqq",
"qqqqqqqq <<tiiiiiiiit<< qqqqqqqq",
"qqqqqqq #<<tiiiiiiiit<<# qqqqqqq",
"qqqqqqq <<-iiiiiiiiii-<< qqqqqqq",
"qqqqqq =<<yiiiiiiiiiiy<<= qqqqqq",
"qqqqqq <<<yiiiiiiiiiiy<<< qqqqqq",
"qqqqqqq <<yiiiiiiiiiiy<< 7qqqqqq",
"qqqqqqqq  wuuuuuuuuuuw  77qqqqqq",
"qqqqqqqqqq <---<<---< qq77qqqqq7",
"qqqqqqqqqq tiiittiiit qqqqqqqqqq",
"qqqqqqqqqq sppsssspps qqqqqqqqqq",
"qqqqqqqqqq6          6qqqqqqqqqq",
"qqqqqqqqqqqqqqqqqqqqqqqqqqqqqqqq",
"qqqqqqqqqqqqqqqqqqqqqqqqqqq7qqqq"
};
