/* XPM */
static char *pixil_frame_0_1_1706178113[] = {
/* columns rows colors chars-per-pixel */
"32 32 71 1 ",
"  c black",
". c #1C1314",
"X c #281C1C",
"o c #1E242A",
"O c #2B2224",
"+ c #0C3443",
"@ c #0E3A4A",
"# c #5B3E40",
"$ c #47434A",
"% c #4C4348",
"& c #58464A",
"* c #60494C",
"= c #6E4C4D",
"- c #734F51",
"; c #755152",
": c #7B5556",
"> c #7D5657",
", c #7F5759",
"< c #5B6D7E",
"1 c #ED1C24",
"2 c #865C5E",
"3 c #B57F58",
"4 c #8B6061",
"5 c #906365",
"6 c #916466",
"7 c #956668",
"8 c #97686A",
"9 c #966A6D",
"0 c #9A6A6C",
"q c #896D73",
"w c #E15E6F",
"e c #049470",
"r c #7BAB4B",
"t c #7EAE4C",
"y c #65C45B",
"u c #81B34E",
"i c #82B44F",
"p c #89BE53",
"a c #E09C6C",
"s c #90C757",
"d c #93CC5A",
"f c #97D25C",
"g c #9CD85F",
"h c #9DDA60",
"j c #9FDC61",
"k c #A2E062",
"l c #ADE34F",
"z c #3D738D",
"x c #297FA2",
"c c #59768B",
"v c #617487",
"b c #697383",
"n c #6C7383",
"m c #1F94BF",
"M c #2184AA",
"N c #4C809B",
"B c #2197C3",
"V c #2697C1",
"C c #269AC5",
"Z c #2A99C3",
"A c #249ECC",
"S c #2BA3D0",
"D c #2AA7D5",
"F c #28A8D8",
"G c #2BABDB",
"H c #2CAEDF",
"J c #2CB1E2",
"K c #2CB2E3",
"L c #2DB6E9",
"P c #2FBAEE",
"I c #37B5E8",
/* pixels */
"lllylllllllllllllllyllllllllllll",
"llllll    dllllllllllg    llllll",
"lllll ;000 i        l 000: laall",
"llll 500000 55555555 000006 aall",
"llll 0000000000000000000000 yall",
"llll 0000000000000000000000 llll",
"llly 0000000000000000000000 llll",
"llll3  000000000000000000  lllll",
"lllllkl 0000000000000000 rjlllll",
"lllllll 0000000000000000 ullllll",
"llllll 000000000000000000 llllll",
"llllll 000000000000000000 llllll",
"llllll 000000000000000000 llllll",
"llllll 000000000000000000 llllll",
"lllllll 0000000000000000 llyllll",
"lllllll ,000000000000002 llyllll",
"lyylllll ;77000000000-- llllllll",
"lyeyylll :XX.........> lllllllll",
"lllllll -0MIPv0000BPA00 llllllll",
"lllllll 80MPPv0000BPA00 tlllllll",
"llllll #00xPPFZcNAPPA004 lllllll",
"llllll 00nJPPPPKJwIwPM90 hllllll",
"lllll 200mPPPPF$%1w1wLb00 flllll",
"lllll 000mPPPPD&*111wLb00 slllll",
"lllll =00mPPPPPCVw1wPLb00 jlllll",
"llllll    SFFFF+FFwFFz   yllllll",
"lllllllll qqqqqOqqqqq5 lyyllllly",
"lllllllll vvvvvovvvvv< lllllllll",
"lllllllll PPPPP@PPPPPH lllllllll",
"llllllllll            plllllllll",
"llllllllllllllllllllllllllllllll",
"lllllllllllllllllllllllllllyllll"
};
