/* XPM */
static char *pixil_frame_0_8_1706178114[] = {
/* columns rows colors chars-per-pixel */
"32 32 106 2 ",
"   c black",
".  c #0D0606",
"X  c #000A0A",
"o  c #150000",
"O  c #001C03",
"+  c #00011B",
"@  c #001616",
"#  c #1C1313",
"$  c #281C1C",
"%  c #2D1E1F",
"&  c #1B0028",
"*  c #1E2727",
"=  c #362526",
"-  c #382627",
";  c #3C292A",
":  c #412D2E",
">  c #432E2F",
",  c #523839",
"<  c #553A3B",
"1  c #583D3E",
"2  c #5B3E3F",
"3  c #566138",
"4  c #5C3F40",
"5  c #514343",
"6  c #564546",
"7  c #5D4041",
"8  c #614344",
"9  c #624344",
"0  c #634445",
"q  c #654546",
"w  c #6E4042",
"e  c #674748",
"r  c #69484A",
"t  c #6A484A",
"y  c #6A4E4A",
"u  c #6C4B4C",
"i  c #714D4E",
"p  c #714E4F",
"a  c #7E4D4F",
"s  c #745152",
"d  c #775953",
"f  c #795258",
"g  c #7C5759",
"h  c #8C494C",
"j  c #934044",
"k  c #934246",
"l  c #82595B",
"z  c #835A5C",
"x  c #855B5D",
"c  c #855C5D",
"v  c #885E5F",
"b  c #B44F5A",
"n  c #8D6162",
"m  c #8F6364",
"M  c #8D696A",
"N  c #8E696A",
"B  c #906264",
"V  c #936567",
"C  c #946567",
"Z  c #946668",
"A  c #92696B",
"S  c #96696B",
"D  c #976A6C",
"F  c #956D6F",
"G  c #996A6C",
"H  c #9B6A6C",
"J  c #9C6B6D",
"K  c #9C6C6E",
"L  c #9D6C6E",
"P  c #9F6E70",
"I  c #A06E70",
"U  c #B36D70",
"Y  c #B56E71",
"T  c #BE6E72",
"R  c #A17071",
"E  c #A57274",
"W  c #D56268",
"Q  c #C57074",
"!  c #C67074",
"~  c #CE7175",
"^  c #DC7378",
"/  c #DD7378",
"(  c #E17479",
")  c #E4757A",
"_  c #ED767C",
"`  c #E7787D",
"'  c #F37278",
"]  c #F1777D",
"[  c #049470",
"{  c #65C45B",
"}  c #958136",
"|  c #C8A34E",
" . c #DBB257",
".. c #E09C6C",
"X. c #91C858",
"o. c #92CA59",
"O. c #93CA59",
"+. c #9CD85F",
"@. c #A3E264",
"#. c #ADE34F",
"$. c #FF7A81",
"%. c #FF7C83",
"&. c #FF7F86",
"*. c #AAAEAE",
"=. c #FF8289",
"-. c #C4C5C5",
/* pixels */
"#.#.#.{ #.#.#.#.#.#.#.#.#.#.#.#.#.#.#.{ #.#.#.#.#.#.#.#.#.#.#.#.",
"#.#.#.#.#.#.#.        #.#.#.#.#.#.#.#.#.#.#.#.      #.#.#.#.#.#.",
"#.#.#.#.#.#.  1 1 4 <   #.#.#.#.#.#.#.#.#.#.  1 1 1   #.....#.#.",
"#.#.#.#.#.  n g @   P 7                     I X @ * L   ....#.#.",
"#.#.#.#.  1 l W &.=.  E 9 I L I P P I L c L 5 &.=.$.a Z   ..#.#.",
"#.#.#.#.  7 X &.$.&.  L G J G J G G G S G G 6 &.$.$.j C   #.#.#.",
"#.#.#.{   7   =.&.h J H G J G G G J H H L G J 5 ' &.j Z   #.#.#.",
"#.#.#.#.  1 L     L G J G J J G J G H H J J G G e o c B   #.#.#.",
"#.#.#.#.#.  r v L G G z   *.w G H J v -.  q G J J P u   #.#.#.#.",
"#.#.#.#.#.#.    G G G I     : J H G x     G G G P     #.#.#.#.#.",
"#.#.#.#.#.#.#.  G N ( ` O  .+ I G G f | } ^ ) N L d   #.#.#.#.#.",
"#.#.#.#.#.#.  0 J ^ $.$.$.  R = v v L & b $.$.$.S Z   #.#.#.#.#.",
"#.#.#.#.#.#.  0 S $.$.$.$.! n       I G &.$.$.$.~ Z   #.#.#.#.#.",
"#.#.#.#.#.#.  0 D $.$.$.$.! G 8   Z G D $.$.$.$.~ Z   #.#.#.#.#.",
"#.#.#.#.#.#.  q D =.$.$.$.! G E - L G A &.$.$.$.~ G   { #.#.#.#.",
"#.#.#.#.#.#.#.  G ! $.$._ N G , V B G G T $.$.] F   #.{ #.#.#.#.",
"#.{ { #.#.#.#.  : P Y Y S G G L G G G G D U Y D p   #.#.#.#.#.#.",
"#.{ [ { { #.#.#.    x L L L L J L L L L L L l c   #.#.#.#.#.#.#.",
"#.#.#.#.#.#.#.#.#.  m # % % % % % % % % % $ J   #.#.#.#.#.#.#.#.",
"#.#.#.#.#.#.#.#.  R G P P P I J P P P P I J H J   #.#.#.#.#.#.#.",
"#.#.#.#.#.#.#.  Z G G G G G J H G G G G G G G J 0   #.#.#.#.#.#.",
"#.#.#.#.#.#.#.  G G L n G G H H J G S H J s J J g   #.#.#.#.#.#.",
"#.#.#.#.#.#.  q G R . L H S H J G G J H J H t G I   #.#.#.#.#.#.",
"#.#.#.#.#.  t I G q J J H H H J G J G H H H t G G J   #.#.#.#.#.",
"#.#.#.#.#.  Z G G r J J G H G G H H H H G J r J G G   #.#.#.#.#.",
"#.#.#.#.#.  0 R I u J J H H J G J H H J H J r I I J   #.#.#.#.#.",
"#.#.#.#.#.#.        G J S G G I ; G G G H H p       #.#.#.#.#.{ ",
"#.#.#.#.#.#.#.#.#.  J G G G J J : G G G S H u   #.#.#.#.#.#.#.#.",
"#.#.#.#.#.#.#.#.#.  G G G J G I : J G G J G u   #.#.#.#.#.#.#.#.",
"#.#.#.#.#.#.#.#.#.  L G G G G J > J J G G G p   #.#.#.#.#.#.#.#.",
"#.#.#.#.#.#.#.#.#.  V n B n n V 3 C n n n m y   #.#.#.#.#.#.#.#.",
"#.#.#.#.#.#.#.#.#.#.O.O.O.O.O.X.#.O.O.O.O.O.+.#.#.#.#.{ #.#.#.#."
};
