/* XPM */
static char *pixil_frame_0_7_1706178115[] = {
/* columns rows colors chars-per-pixel */
"32 32 110 2 ",
"   c black",
".  c #000504",
"X  c #211717",
"o  c #271A1B",
"O  c #2B1E1E",
"+  c #2D1E1F",
"@  c #020127",
"#  c #002020",
"$  c #052A29",
"%  c #312122",
"&  c #322223",
"*  c #322323",
"=  c #352525",
"-  c #3C292A",
";  c #432938",
":  c #473132",
">  c #483233",
",  c #493334",
"<  c #4B3435",
"1  c #4D3435",
"2  c #4E3637",
"3  c #563B3C",
"4  c #573C3D",
"5  c #5A3D3F",
"6  c #752E32",
"7  c #773236",
"8  c #7A3538",
"9  c #7B3A3D",
"0  c #234515",
"q  c #5D3F40",
"w  c #6E4B4C",
"e  c #714143",
"r  c #675448",
"t  c #735051",
"y  c #785253",
"u  c #7E5658",
"i  c #7E6257",
"p  c #873645",
"a  c #82595B",
"s  c #845A5C",
"d  c #865C5D",
"f  c #895E5F",
"g  c #AB5256",
"h  c #BD565B",
"j  c #865B60",
"k  c #8A5F60",
"l  c #846465",
"z  c #8A6160",
"x  c #8E6263",
"c  c #8F6364",
"v  c #8F6465",
"b  c #886869",
"n  c #8F696A",
"m  c #906062",
"M  c #906264",
"N  c #916365",
"B  c #906668",
"V  c #956668",
"C  c #966769",
"Z  c #95696B",
"A  c #97696B",
"S  c #916A6C",
"D  c #99696B",
"F  c #9B6B6D",
"G  c #9D6A6C",
"H  c #9C6B6D",
"J  c #9C6C6E",
"K  c #9F6D6F",
"L  c #9F6E70",
"P  c #A36B6D",
"I  c #A86B6E",
"U  c #AD6C6F",
"Y  c #A06E70",
"T  c #A06F71",
"R  c #B46D70",
"E  c #B76E71",
"W  c #A27072",
"Q  c #A47173",
"!  c #A57274",
"~  c #B97073",
"^  c #BC7476",
"/  c #C5646B",
"(  c #D56A6F",
")  c #EF7077",
"_  c #E2757A",
"`  c #E4757A",
"'  c #E7787D",
"]  c #F2777D",
"[  c #F4787E",
"{  c #F8787E",
"}  c #FC787F",
"|  c #049470",
" . c #65C45B",
".. c #B59646",
"X. c #B89748",
"o. c #D9B056",
"O. c #E09C6C",
"+. c #91C959",
"@. c #93CA59",
"#. c #97D05C",
"$. c #A3E063",
"%. c #A3E264",
"&. c #ADE34F",
"*. c #FF7A81",
"=. c #FF7B82",
"-. c #FF7E85",
";. c #B5B9B9",
":. c gray74",
">. c #FF8087",
",. c #FF8289",
/* pixels */
"&.&.&. .&.&.&.&.&.&.&.&.&.&.&.&.&.&.&. .&.&.&.&.&.&.&.&.&.&.&.&.",
"&.&.&.&.&.&.        &.&.&.&.&.&.&.&.&.&.&.%.        &.&.&.&.&.&.",
"&.&.&.&.&.  4 5 5 4   &.&.&.&.&.&.&.&.&.%.  3 q 5 4   &.O.O.&.&.",
"&.&.&.&.  a v . . N z                     J x . . v a   O.O.&.&.",
"&.&.&.  1 j h >.,.8 5 C L L P J L L P Q = L 6 ,.-.h z 1   O.&.&.",
"&.&.&.  1 $ >.=.=.7 J H J Z J D D J D D d N 7 =.=.-.$ 2   &.&.&.",
"&.&.&.  1 # >.>.g B D J D J D J J Z G D F J x g ,.,.# 1   &.&.&.",
"&.&.&.  1 Y     H D J C J D J D D J D J J J J J     P <   &.&.&.",
"&.&.&.&.  r u Y F y   ;.e J J H m :.  3 H D J D L u r   &.&.&.&.",
"&.&.&.&.&.    z F L     1 H J Z z     x D J D H z     &.&.&.&.&.",
"&.&.&.&.&.&.  l ` ' 0 o.@ Y H H j X.../ _ P H D C   &.&.&.&.&.&.",
"&.&.&.&.&.  > [ =.=.)   Y * k s H ; p =.=.=.D H J :   &.&.&.&.&.",
"&.&.&.&.&.  9 -.=.} =.E f       Y S -.=.=.} ] Z H :   &.&.&.&.&.",
"&.&.&.&.&.  9 =.=.=.=.E J q   N J n } =.=.} ] D H ,   &.&.&.&.&.",
"&.&.&.&.&.  9 =.} =.=.E H ! * J D S =.=.=.=.{ Z J <    .&.&.&.&.",
"&.&.&.&.&.&.  ( =.=._ Z H 1 C z H H I } =.} b H k   &. .&.&.&.&.",
"&. . .&.&.&.$.  ^ E Z J D J J H H D Z U E H J Y   $.&.&.&.&.&.&.",
"&. .|  . .&.&.&.  Z H L J J H J J J P H J k i   &.&.&.&.&.&.&.&.",
"&.&.&.&.&.&.&.&.  5 O + + + + + + O * % o f   %.&.&.&.&.&.&.&.&.",
"&.&.&.&.&.&.&.&.  - W L Y J J H L L x x L D x   &.&.&.&.&.&.&.&.",
"&.&.&.&.&.&.&.  z d J J D D D J J J H - P F J :   &.&.&.&.&.&.&.",
"&.&.&.&.&.&.&.  x z C J J D J D J Z H J X F J t   &.&.&.&.&.&.&.",
"&.&.&.&.&.&.%.  x f J D D J D J D D D J k k J L   &.&.&.&.&.&.&.",
"&.&.&.&.&.&.  C f f D J D D J C J D J D J = J J Z   &.&.&.&.&.&.",
"&.&.&.&.&.&.  H f z H D J D J J C J D J J - L F H   &.&.&.&.&.&.",
"&.&.&.&.&.&.  C x f D J J J w L J D J C J * W P C   &.&.&.&.&.&.",
"&.&.&.&.&.&.&.    x D D D J k k D J D J D Y        .&.&.&.&.&. .",
"&.&.&.&.&.&.&.&.  f D J D D f s D D J D J L   &.&.&.&.&.&.&.&.&.",
"&.&.&.&.&.&.&.&.  z J D D H k f D J D D J J   &.&.&.&.&.&.&.&.&.",
"&.&.&.&.&.&.&.&.  z D J H D k f J D J D H Y   &.&.&.&.&.&.&.&.&.",
"&.&.&.&.&.&.&.&.  a x N x x u u x x x x x N   &.&.&.&.&.&.&.&.&.",
"&.&.&.&.&.&.&.&.$.#.+.@.+.+.@.@.@.+.+.+.+.+.&.&.&.&.&. .&.&.&.&."
};
