/* XPM */
static char *pixil_frame_0_6_1706178115[] = {
/* columns rows colors chars-per-pixel */
"32 32 96 2 ",
"   c black",
".  c #030101",
"X  c #001E1D",
"o  c #26191A",
"O  c #2D1E1F",
"+  c #2D1F20",
"@  c #0C2A29",
"#  c #1F3837",
"$  c #322323",
"%  c #352525",
"&  c #362526",
"*  c #3A2829",
"=  c #3E2B2B",
"-  c #490001",
";  c #412C2D",
":  c #412D2E",
">  c #453233",
",  c #483233",
"<  c #493334",
"1  c #4A3535",
"2  c #4F3637",
"3  c #53393A",
"4  c #563C3D",
"5  c #673739",
"6  c #773236",
"7  c #70373A",
"8  c #793A3D",
"9  c #4D2B42",
"0  c #504141",
"q  c #7B4042",
"w  c #7B5E40",
"e  c #7A5456",
"r  c #7D5557",
"t  c #7D5758",
"y  c #8C633E",
"u  c #804447",
"i  c #815658",
"p  c #855759",
"a  c #835D5E",
"s  c #885E5F",
"d  c #895E5F",
"f  c #936749",
"g  c #805D62",
"h  c #8A5E63",
"j  c #9C5C63",
"k  c #836061",
"l  c #876061",
"z  c #8A6263",
"x  c #8D6162",
"c  c #8E6263",
"v  c #8F696B",
"b  c #906365",
"n  c #916365",
"m  c #936567",
"M  c #9B6365",
"N  c #91696B",
"B  c #95696B",
"V  c #976A6C",
"C  c #98686A",
"Z  c #98696B",
"A  c #9A6A6C",
"S  c #9B6A6C",
"D  c #9C6B6D",
"F  c #9C6C6E",
"G  c #9D6C6E",
"H  c #9F6E70",
"J  c #A86B6E",
"K  c #A06E70",
"L  c #A26F71",
"P  c #AA6D70",
"I  c #B56E71",
"U  c #A17071",
"Y  c #A47173",
"T  c #CB7175",
"R  c #EB6E74",
"E  c #F26F78",
"W  c #EF7076",
"Q  c #E2757A",
"!  c #F6747A",
"~  c #F2777D",
"^  c #FB787F",
"/  c #049470",
"(  c #65C45B",
")  c #D4AC54",
"_  c #E09C6C",
"`  c #94CC5A",
"'  c #98D15D",
"]  c #A2E063",
"[  c #ADE34F",
"{  c #F1C55E",
"}  c #FF7A81",
"|  c #FF7C83",
" . c #FF7E85",
".. c #FF8289",
"X. c #DEDFDF",
"o. c gray88",
/* pixels */
"[ [ [ ( [ [ [ [ [ [ [ [ [ [ [ [ [ [ [ ( [ [ [ [ [ [ [ [ [ [ [ [ ",
"[ [ [ [ [ [           [ [ [ [ [ [ [ [ [ [ [         [ [ [ [ [ [ ",
"[ [ [ [ [   U z z D n                       U z z U   [ _ _ [ [ ",
"[ [ [ [   L 5 R R q L ; x z h h x s s x e $ u R R 5 L   _ _ [ [ ",
"[ [ [   2 X ..} | 6 D 3 A A A A Z A D Z G Y 6 | } ..X 2   _ [ [ ",
"[ [ [   2 @  .} ! t V C A A A A D Z Z D Z D i ! }  .@ 2   [ [ [ ",
"[ [ [   2 0 W W # H A A A H A A Z D Z Z G D G # W W 0 2   [ [ [ ",
"[ [ [   f m l a D A A A m 1 - H D Z D Y   : U G a l m   [ [ [ [ ",
"[ [ [ [       Z A A A G o   X.p A A G   o.  0 A Z     [ [ [ [ [ ",
"[ [ [ [ [ [   s A A A v k     c A Z D 2     G v s   [ [ [ [ [ [ ",
"[ [ [ [ [   < G Z B T | E ) ) h Z Z n 9 { y  .| P >   [ [ [ [ [ ",
"[ [ [ [ [   , D V Q | }  .! t L % >   n j } } } } 7   [ [ [ [ [ ",
"[ [ [ [ [   , D B ~ } } } } v G %   . n I } } } } 8   [ [ [ [ [ ",
"[ [ [ [ [   , D Z ~ } } } | v A Z % m D I } } } | 8   [ [ [ [ [ ",
"[ [ [ [ [ [   Z A Q | } } ^ N A Z 3 n A P } } } } w   ( [ [ [ [ ",
"[ [ [ [ [ [   x A B T | ^ Z A A C B x A A J | | M   [ ( [ [ [ [ ",
"[ ( ( [ [ [ [   n Z G N N A A A D Z Z D A A N l   [ [ [ [ [ [ [ ",
"[ ( / ( ( [ [ [     4 U H H H H K K D L G L n   [ [ [ [ [ [ [ [ ",
"[ [ [ [ [ [ [ [ ]   B % $ $ = = = ; = = = : >   [ [ [ [ [ [ [ [ ",
"[ [ [ [ [ [ [ [ '   B F x h G A D D D D G U %   [ [ [ [ [ [ [ [ ",
"[ [ [ [ [ [ [ [   G G m 4 G A A Z A A A A A x m   [ [ [ [ [ [ [ ",
"[ [ [ [ [ [ [   m Z G O L A A A A A A A A A x x   [ [ [ [ [ [ [ ",
"[ [ [ [ [ [ [   D A r n A A A A A A A A A A h b   [ [ [ [ [ [ [ ",
"[ [ [ [ [ [   Z G L * A A A A A A A A A A A s s A   [ [ [ [ [ [ ",
"[ [ [ [ [ [   D Z H = D A A A A Z G D Z G Z h z G   [ [ [ [ [ [ ",
"[ [ [ [ [ [   n L Y + D A A A A G 3 G D Z Z s x n   [ [ [ [ [ [ ",
"[ [ [ [ [ [ [       Y D A A A A s x D Z D Z x     ( [ [ [ [ [ ( ",
"[ [ [ [ [ [ [ [ [   K Z A A A A s z Z D Z D x   [ [ [ [ [ [ [ [ ",
"[ [ [ [ [ [ [ [ [   Y D D Z D Z s s S Z Z D s   [ [ [ [ [ [ [ [ ",
"[ [ [ [ [ [ [ [ [   D Z Z D Z G s z S S D Z s   [ [ [ [ [ [ [ [ ",
"[ [ [ [ [ [ [ [ [   x s x s s s e e s x h s t   [ [ [ [ [ [ [ [ ",
"[ [ [ [ [ [ [ [ [ [ ` ` ` ` ` ` ` ` ` ` ` ` ' [ [ [ [ ( [ [ [ [ "
};
