/* XPM */
static char *pixil_frame_0_9_1706178114[] = {
/* columns rows colors chars-per-pixel */
"32 32 53 1 ",
"  c black",
". c #1A0E0E",
"X c #241819",
"o c #273618",
"O c #342525",
"+ c #3A2829",
"@ c #3B2B29",
"# c #412C2D",
"$ c #422D2E",
"% c #453031",
"& c #463031",
"* c #53393A",
"= c #563C3D",
"- c #583D3E",
"; c #5B3E3F",
": c #384D22",
"> c #3B5224",
", c #3C5325",
"< c #614344",
"1 c #6A484A",
"2 c #6B494B",
"3 c #6E524C",
"4 c #745152",
"5 c #7B5557",
"6 c #7D5557",
"7 c #80595B",
"8 c #845B5D",
"9 c #875D5E",
"0 c #8E6263",
"q c #8F6364",
"w c #916365",
"e c #926466",
"r c #936567",
"t c #946567",
"y c #97686A",
"u c #99696B",
"i c #996A6C",
"p c #9A6A6C",
"a c #9B6B6D",
"s c #9E6D6F",
"d c #9F6E70",
"f c #9F6F70",
"g c #A06E70",
"h c #A37173",
"j c #A47374",
"k c #049470",
"l c #65C45B",
"z c #E09C6C",
"x c #94CC5A",
"c c #9BD75F",
"v c #A2E063",
"b c #A3E264",
"n c #ADE34F",
/* pixels */
"nnnlnnnnnnnnnnnnnnnlnnnnnnnnnnnn",
"nnnnnnn   nnnnnnnnnnnn   nnnnnnn",
"nnnnnn <<< nnnnnnnnnn <<< nnzznn",
"nnnnn sppus          sppps nzznn",
"nnnn ypppppqssssssss0pppppy lznn",
"nnnn tppppppupppppppppppppt nnnn",
"nnnl rppppppppppppppppppppt nnnn",
"nnnn 9spppppppppppppppppus9 nnnn",
"nnnnn +gppppppppppppppppf+ nnnnn",
"nnnnnn  suppppppppppppps  nnnnnn",
"nnnnnn yppppppppppppppppy nnnnnn",
"nnnnnn sppppppppppppppppp nnnnnn",
"nnnnnn pppppppppppppppppp nnnnnn",
"nnnnnn ppppppppppppppppps nnnnnn",
"nnnnnn rppppppppppppppppr nlnnnn",
"nnnnnnn fppppppppppppppf nnlnnnn",
"nllnnnn 2fpppyppppppusp3 nnnnnnn",
"nlkllnnn Xwfffffssssh   nnnnnnnn",
"nnnnnnnb j2;=;;;;;;;*h xnnnnnnnn",
"nnnnnnn 5ppppppppppppps nnnnnnnn",
"nnnnnnn fpfpppppppppspp6 nnnnnnn",
"nnnnnn fppOfpppppppp;pps.nnnnnnn",
"nnnnnn pf;ppppp22ppps4rp9 nnnnnn",
"nnnnn hpfOppppr99rppp00uu2 nnnnn",
"nnnnn husOppppp==pppu00up2 nnnnn",
"nnnnnn 79+fppppqfpppu0477 nnnnnn",
"nnnnnnv  &fpppp&fpppp0   lnnnnnl",
"nnnnnnnn +ppppp$fpppp0 nnnnnnnnn",
"nnnnnnnn $uppup&fpppp0 nnnnnnnnn",
"nnnnnnnn $ggfff&hffffw nnnnnnnnn",
"nnnnnnnnn :,,,>co,>,, nnnnnnnnnn",
"nnnnnnnnnnnnnnnnnnnnnnnnnnnlnnnn"
};
