/* XPM */
static char *pixil_frame_0_10_1706178114[] = {
/* columns rows colors chars-per-pixel */
"32 32 102 2 ",
"   c black",
".  c #3A3333",
"X  c #4E3C34",
"o  c #473E39",
"O  c #005B2F",
"+  c #005D31",
"@  c #294731",
"#  c #374B38",
"$  c #345635",
"%  c #315932",
"&  c #006433",
"*  c #086332",
"=  c #006A36",
"-  c #006E39",
";  c #1A6936",
":  c #00723B",
">  c #007C3D",
",  c #2F6035",
"<  c #347137",
"1  c #31773A",
"2  c #3B7638",
"3  c #307A3C",
"4  c #4F4337",
"5  c #51453E",
"6  c #554B3E",
"7  c #5F4A3B",
"8  c #5B503C",
"9  c #59593B",
"0  c #6A5D2F",
"q  c #624B30",
"w  c #62513E",
"e  c #69543F",
"r  c #625C3C",
"t  c #007D41",
"y  c #745C41",
"u  c #616940",
"i  c #B57F58",
"p  c #00833E",
"a  c #008B3D",
"s  c #00933E",
"d  c #008343",
"f  c #008C42",
"g  c #008B4A",
"h  c #009542",
"j  c #009843",
"k  c #00934E",
"l  c #009C4B",
"z  c #009C53",
"x  c #149C55",
"c  c #2B8543",
"v  c #278945",
"b  c #2A8B43",
"n  c #269443",
"m  c #309648",
"M  c #209B52",
"N  c #01A355",
"B  c #00AD53",
"V  c #01A658",
"C  c #0BA559",
"Z  c #04A959",
"A  c #18A65A",
"S  c #14A95A",
"D  c #1CAA5C",
"F  c #00B258",
"G  c #0DB85F",
"H  c #1CB35E",
"J  c #1CBE5F",
"K  c #21AD5E",
"L  c #22B65F",
"P  c #1DBF60",
"I  c #26AE61",
"U  c #22B261",
"Y  c #21BF61",
"T  c #478D43",
"R  c #558F44",
"E  c #479243",
"W  c #469449",
"Q  c #549343",
"!  c #46A550",
"~  c #66A14A",
"^  c #69A249",
"/  c #7FA44A",
"(  c #19C05F",
")  c #1ACC66",
"_  c #1DD76B",
"`  c #1CDA6C",
"'  c #22C163",
"]  c #23D96C",
"[  c #1BE16F",
"{  c #65C45B",
"}  c #83B04F",
"|  c #85B650",
" . c #87BA52",
".. c #89BD54",
"X. c #E09C6C",
"o. c #8BC155",
"O. c #96CE5B",
"+. c #96D15C",
"@. c #9BD85F",
"#. c #9DD960",
"$. c #A1DE62",
"%. c #ADE34F",
/* pixels */
"%.%.%.{ %.%.%.%.%.%.%.%.      b v       %.%.%.%.%.%.%.%.%.%.%.%.",
"%.%.%.%.%.%.%.%.%.%.    ^ ^ ! ] ] ! ~ ^     %.%.%.%.%.%.%.%.%.%.",
"%.%.%.%.%.%.%.%.    Q g C V F ` ` F V C g Q     %.%.%.%.X.X.%.%.",
"%.%.%.%.%.%.%.  W t z L z k ] ` ` ] k z U z t W   %.%.%.X.X.%.%.",
"%.%.%.%.%.%.%.  x K A k g G [ _ ` [ G k k D A M   %.%.%.{ X.%.%.",
"%.%.%.%.%.%.  - z A D D H J ) _ ` ( ( L D D D z -   %.%.%.%.%.%.",
"%.%.%.{ i   : ' l D D H J J J ) ) L ( ( H D A l U :   %.%.%.%.%.",
"%.%.%.%.i   : U D D D D D H ( J J ( H D D D D D U -   %.%.%.%.%.",
"%.%.%.%.  E h = Z P H A D D ( J P P P D D D A N = d T   %.%.%.%.",
"%.%.%.  Q m D h U H z N D D D H D A A D N z L K g h b R   %.%.%.",
"%.%.  - d x D N j d C Y H D D D D D D A D N > d f h a p :   %.%.",
"%.  v d f x D V K j Z Y J H D H D D D A I C d h h h a p d v   %.",
"%.  n h h k z Z D V l B I C B J U N N K A k h V l f > a h n   %.",
"%.  c f a > j K D K V l s l B J D N j s l z j K l d : d f c   %.",
"@.  : p h a > h V D V V D V j s s s s N L K A a d : t f p -   @.",
"@.  f h s h h g D D D D D S l j j j j j V D j s > d d h h f   @.",
"  ; p h h j h h z C l z K C l h s s j s s s f f : d d h h p <   ",
"+ : - d h h f s f a d g k k a h j h f f d : : > s j f f t - : + ",
"+ : & : f d d h h j f h h h t d d d d d d d d d j s j f : & : + ",
"  3 & : d d d d h d h h h h h h j d d d d d d d p h d d : & 3   ",
"+ + - : - & - t d d f h h h f j s f d d d d d d t - = = : : - + ",
"* & + = - - & g d d d t d d d h j d d d d t d t d & - : : : : * ",
"%.  & = - - : : : : - > d d d d d d d d t - : t : : : - & =   %.",
"%.%.  = - & : : : - - : d t > d d > t d : = : - : : = : &   %.%.",
"%.%.@.  + & O & : - : - & & : t t : & & = : - - : - : &   @.%.%.",
"%.%.$.  < & & : - O + & - : : - - : : : : = O = : : : 1   $.%.%.",
"%.%.%.O.  2 O O # w % = = O = - : = O - : , w # + + 2   O.%.%.{ ",
"%.%.%.%.O.    7 e e 8 $ @ X 9 % % 9 X @ $ 7 w y w     O.%.%.%.%.",
"%.%.%.%.@... ./ u 6 5 o . 4 e r y y 4 . o 5 6 u } | ..@.%.%.%.%.",
"%.%.%.%.%.#. . .        0 q 8 i i 4 q 9         |  .#.%.%.%.%.%.",
"%.%.%.%.%.%.%.$.O. . . .o.  r y e r   o. .|  .O.$.%.%.%.%.%.%.%.",
"%.%.%.%.%.%.%.%.%.%.#.%.+.}  .} } | } +.$.$.$.%.%.%.%.{ %.%.%.%."
};
